<svg width="36" height="36" viewBox="0 0 36 36" fill="none" xmlns="http://www.w3.org/2000/svg">
<path d="M21.375 15.75C21.375 16.0484 21.2565 16.3345 21.0455 16.5455C20.8345 16.7565 20.5484 16.875 20.25 16.875H15.75C15.4516 16.875 15.1655 16.7565 14.9545 16.5455C14.7435 16.3345 14.625 16.0484 14.625 15.75C14.625 15.4516 14.7435 15.1655 14.9545 14.9545C15.1655 14.7435 15.4516 14.625 15.75 14.625H20.25C20.5484 14.625 20.8345 14.7435 21.0455 14.9545C21.2565 15.1655 21.375 15.4516 21.375 15.75ZM32.625 10.125V28.125C32.625 28.7217 32.3879 29.294 31.966 29.716C31.544 30.1379 30.9717 30.375 30.375 30.375H5.625C5.02826 30.375 4.45597 30.1379 4.03401 29.716C3.61205 29.294 3.375 28.7217 3.375 28.125V10.125C3.375 9.52826 3.61205 8.95597 4.03401 8.53401C4.45597 8.11205 5.02826 7.875 5.625 7.875H11.25V6.75C11.25 5.85489 11.6056 4.99645 12.2385 4.36351C12.8714 3.73058 13.7299 3.375 14.625 3.375H21.375C22.2701 3.375 23.1286 3.73058 23.7615 4.36351C24.3944 4.99645 24.75 5.85489 24.75 6.75V7.875H30.375C30.9717 7.875 31.544 8.11205 31.966 8.53401C32.3879 8.95597 32.625 9.52826 32.625 10.125ZM13.5 7.875H22.5V6.75C22.5 6.45163 22.3815 6.16548 22.1705 5.95451C21.9595 5.74353 21.6734 5.625 21.375 5.625H14.625C14.3266 5.625 14.0405 5.74353 13.8295 5.95451C13.6185 6.16548 13.5 6.45163 13.5 6.75V7.875ZM30.375 15.9764V10.125H5.625V15.9764C9.42219 18.0433 13.6767 19.1258 18 19.125C22.3233 19.1258 26.5778 18.0433 30.375 15.9764Z" fill="#DD5444"/>
</svg>
