<svg width="36" height="36" viewBox="0 0 36 36" fill="none" xmlns="http://www.w3.org/2000/svg">
<path d="M31.8558 7.93262L18.3558 3.43262C18.1248 3.35563 17.8752 3.35563 17.6442 3.43262L4.14422 7.93262C3.92021 8.00729 3.72538 8.15056 3.58732 8.34212C3.44926 8.53369 3.37498 8.76383 3.375 8.99996V20.25C3.375 20.5483 3.49353 20.8345 3.7045 21.0455C3.91548 21.2564 4.20163 21.375 4.5 21.375C4.79837 21.375 5.08452 21.2564 5.29549 21.0455C5.50647 20.8345 5.625 20.5483 5.625 20.25V10.5609L10.3486 12.1345C9.0936 14.162 8.69451 16.6047 9.23897 18.9263C9.78343 21.2478 11.2269 23.2584 13.2525 24.5165C10.7212 25.5093 8.53312 27.3051 6.93281 29.7604C6.84958 29.8841 6.79177 30.0231 6.76274 30.1694C6.73371 30.3156 6.73404 30.4662 6.7637 30.6123C6.79336 30.7584 6.85177 30.8971 6.93553 31.0205C7.01929 31.1438 7.12674 31.2493 7.25161 31.3307C7.37649 31.4122 7.51631 31.468 7.66295 31.4949C7.80959 31.5219 7.96012 31.5194 8.10579 31.4876C8.25146 31.4559 8.38937 31.3955 8.51149 31.31C8.63362 31.2245 8.73753 31.1155 8.81719 30.9895C10.9364 27.7382 14.2833 25.875 18 25.875C21.7167 25.875 25.0636 27.7382 27.1828 30.9895C27.3478 31.2347 27.6027 31.4052 27.8924 31.464C28.182 31.5228 28.4832 31.4652 28.7308 31.3038C28.9784 31.1423 29.1525 30.8899 29.2154 30.6011C29.2783 30.3123 29.2251 30.0103 29.0672 29.7604C27.4669 27.3051 25.2703 25.5093 22.7475 24.5165C24.7711 23.2584 26.2133 21.2492 26.7576 18.9293C27.302 16.6095 26.9042 14.1685 25.6514 12.1415L31.8558 10.0743C32.0798 9.9997 32.2747 9.85646 32.4128 9.66489C32.5509 9.47332 32.6253 9.24315 32.6253 9.00699C32.6253 8.77083 32.5509 8.54066 32.4128 8.3491C32.2747 8.15753 32.0798 8.01428 31.8558 7.93965V7.93262ZM24.75 16.875C24.7503 17.9421 24.4976 18.9941 24.0126 19.9447C23.5276 20.8952 22.8241 21.7173 21.9599 22.3433C21.0957 22.9693 20.0954 23.3815 19.041 23.5461C17.9866 23.7107 16.9082 23.6229 15.8943 23.29C14.8805 22.9572 13.9599 22.3886 13.2083 21.6311C12.4567 20.8735 11.8954 19.9486 11.5705 18.9321C11.2456 17.9156 11.1663 16.8366 11.3391 15.7836C11.512 14.7305 11.932 13.7335 12.5648 12.8742L17.6442 14.5617C17.8752 14.6387 18.1248 14.6387 18.3558 14.5617L23.4352 12.8742C24.2899 14.0329 24.7507 15.4351 24.75 16.875Z" fill="#1153B5"/>
</svg>
