<svg width="20" height="20" viewBox="0 0 20 20" fill="none" xmlns="http://www.w3.org/2000/svg">
<path d="M5.00816 11.547C5.01028 11.5893 5.00377 11.6317 4.98901 11.6714C4.97426 11.7111 4.95158 11.7474 4.92235 11.7781C4.89312 11.8088 4.85794 11.8333 4.81897 11.8499C4.78 11.8666 4.73805 11.8752 4.69566 11.8751H1.24879C1.10772 11.8753 0.970732 11.8278 0.860095 11.7403C0.749458 11.6528 0.671682 11.5304 0.639413 11.3931C0.61932 11.2991 0.620246 11.2018 0.642125 11.1082C0.664005 11.0146 0.706296 10.927 0.765975 10.8517C1.31739 10.1204 2.04901 9.54464 2.88941 9.18059C2.52045 8.84418 2.23746 8.42427 2.06416 7.95601C1.89086 7.48775 1.83228 6.98478 1.89333 6.48922C1.95438 5.99367 2.13329 5.51996 2.41507 5.10776C2.69685 4.69557 3.07329 4.35689 3.51287 4.1201C3.95246 3.88332 4.44238 3.7553 4.94161 3.74679C5.44084 3.73828 5.93484 3.84952 6.38224 4.07118C6.82963 4.29285 7.21741 4.61849 7.51307 5.02084C7.80874 5.42319 8.00369 5.89053 8.0816 6.38371C8.09166 6.45003 8.07978 6.51783 8.04777 6.57678C8.01576 6.63572 7.96536 6.6826 7.90426 6.71028C7.03737 7.11104 6.30321 7.7514 5.7884 8.5558C5.27359 9.36021 4.99961 10.2951 4.99879 11.2501C4.99879 11.3501 4.99879 11.4486 5.00816 11.547ZM19.2269 10.8509C18.6768 10.1205 17.9468 9.54502 17.1082 9.18059C17.4771 8.84418 17.7601 8.42427 17.9334 7.95601C18.1067 7.48775 18.1653 6.98478 18.1042 6.48922C18.0432 5.99367 17.8643 5.51996 17.5825 5.10776C17.3007 4.69557 16.9243 4.35689 16.4847 4.1201C16.0451 3.88332 15.5552 3.7553 15.056 3.74679C14.5567 3.73828 14.0627 3.84952 13.6153 4.07118C13.1679 4.29285 12.7802 4.61849 12.4845 5.02084C12.1888 5.42319 11.9939 5.89053 11.916 6.38371C11.9059 6.45003 11.9178 6.51783 11.9498 6.57678C11.9818 6.63572 12.0322 6.6826 12.0933 6.71028C12.9602 7.11104 13.6944 7.7514 14.2092 8.5558C14.724 9.36021 14.998 10.2951 14.9988 11.2501C14.9988 11.3501 14.9988 11.4486 14.9894 11.547C14.9873 11.5893 14.9938 11.6317 15.0086 11.6714C15.0233 11.7111 15.046 11.7474 15.0752 11.7781C15.1045 11.8088 15.1396 11.8333 15.1786 11.8499C15.2176 11.8666 15.2595 11.8752 15.3019 11.8751H18.7488C18.8899 11.8753 19.0268 11.8278 19.1375 11.7403C19.2481 11.6528 19.3259 11.5304 19.3582 11.3931C19.3784 11.2989 19.3774 11.2014 19.3554 11.1077C19.3334 11.0139 19.2908 10.9262 19.2308 10.8509H19.2269ZM12.2738 14.2243C12.8961 13.7477 13.3534 13.0881 13.5815 12.3382C13.8095 11.5883 13.7969 10.7857 13.5453 10.0434C13.2936 9.30104 12.8157 8.65618 12.1787 8.19947C11.5417 7.74275 10.7775 7.49713 9.99371 7.49713C9.20987 7.49713 8.44574 7.74275 7.80871 8.19947C7.17167 8.65618 6.69377 9.30104 6.44216 10.0434C6.19055 10.7857 6.17789 11.5883 6.40595 12.3382C6.63401 13.0881 7.09133 13.7477 7.71363 14.2243C6.60936 14.7028 5.68728 15.5222 5.08238 16.5626C5.02752 16.6576 4.99864 16.7654 4.99865 16.8752C4.99865 16.9849 5.02754 17.0927 5.08242 17.1877C5.13729 17.2827 5.21621 17.3616 5.31124 17.4164C5.40627 17.4713 5.51407 17.5001 5.62379 17.5001H14.3738C14.4835 17.5001 14.5913 17.4713 14.6863 17.4164C14.7814 17.3616 14.8603 17.2827 14.9152 17.1877C14.97 17.0927 14.9989 16.9849 14.9989 16.8752C14.9989 16.7654 14.9701 16.6576 14.9152 16.5626C14.309 15.5215 13.3852 14.7021 12.2793 14.2243H12.2738Z" fill="#1153B5" fill-opacity="0.4"/>
</svg>
